<svg width="17" height="17" viewBox="0 0 17 17" fill="none" xmlns="http://www.w3.org/2000/svg" stroke="#D0D5DD">
<path fill-rule="evenodd" clip-rule="evenodd" d="M12.7881 15.756L15.7548 12.7893C16.0806 12.4635 16.0806 11.936 15.7548 11.611L14.4331 10.2893C14.1073 9.96346 13.5798 9.96346 13.2548 10.2893L10.2881 13.256C10.1314 13.4126 10.0439 13.6243 10.0439 13.8451V16.0001H12.1989C12.4198 16.0001 12.6314 15.9126 12.7881 15.756Z"  stroke-width="1.5" stroke-linecap="round" stroke-linejoin="round"/>
<path d="M16 7.66667V5.11667C16 4.19667 15.2542 3.45 14.3333 3.45H8.94083C8.665 3.45 8.40667 3.31333 8.25167 3.085L7.08083 1.36417C6.92583 1.13667 6.66833 1 6.3925 1H2.66667C1.74583 1 1 1.74583 1 2.66667V12.6667C1 13.5875 1.74583 14.3333 2.66667 14.3333H6.83333" stroke-width="1.5" stroke-linecap="round" stroke-linejoin="round"/>
</svg>
