<svg width="20" height="19" viewBox="0 0 20 19" fill="none" xmlns="http://www.w3.org/2000/svg">
<path d="M18.5938 0.125H6.09375C5.88655 0.125 5.68784 0.20731 5.54132 0.353823C5.39481 0.500336 5.3125 0.69905 5.3125 0.90625V4.8125H1.40625C1.19905 4.8125 1.00034 4.89481 0.853823 5.04132C0.70731 5.18784 0.625 5.38655 0.625 5.59375V18.0938C0.625 18.301 0.70731 18.4997 0.853823 18.6462C1.00034 18.7927 1.19905 18.875 1.40625 18.875H13.9062C14.1135 18.875 14.3122 18.7927 14.4587 18.6462C14.6052 18.4997 14.6875 18.301 14.6875 18.0938V14.1875H18.5938C18.801 14.1875 18.9997 14.1052 19.1462 13.9587C19.2927 13.8122 19.375 13.6135 19.375 13.4062V0.90625C19.375 0.69905 19.2927 0.500336 19.1462 0.353823C18.9997 0.20731 18.801 0.125 18.5938 0.125ZM13.125 17.3125H2.1875V6.375H13.125V17.3125ZM17.8125 12.625H14.6875V5.59375C14.6875 5.38655 14.6052 5.18784 14.4587 5.04132C14.3122 4.89481 14.1135 4.8125 13.9062 4.8125H6.875V1.6875H17.8125V12.625Z" fill="white"/>
</svg>
