<svg width="17" height="17" viewBox="0 0 17 17" fill="#D0D5DD" xmlns="http://www.w3.org/2000/svg">
<path d="M16.375 10.4688V15.0625C16.375 15.4106 16.2367 15.7444 15.9906 15.9906C15.7444 16.2367 15.4106 16.375 15.0625 16.375H1.9375C1.5894 16.375 1.25556 16.2367 1.00942 15.9906C0.763281 15.7444 0.625 15.4106 0.625 15.0625V10.4688C0.625 10.2947 0.694141 10.1278 0.817211 10.0047C0.940282 9.88164 1.1072 9.8125 1.28125 9.8125C1.4553 9.8125 1.62222 9.88164 1.74529 10.0047C1.86836 10.1278 1.9375 10.2947 1.9375 10.4688V15.0625H15.0625V10.4688C15.0625 10.2947 15.1316 10.1278 15.2547 10.0047C15.3778 9.88164 15.5447 9.8125 15.7188 9.8125C15.8928 9.8125 16.0597 9.88164 16.1828 10.0047C16.3059 10.1278 16.375 10.2947 16.375 10.4688ZM8.0357 10.933C8.09665 10.9941 8.16903 11.0425 8.2487 11.0755C8.32836 11.1085 8.41376 11.1255 8.5 11.1255C8.58624 11.1255 8.67164 11.1085 8.7513 11.0755C8.83097 11.0425 8.90335 10.9941 8.9643 10.933L12.2455 7.6518C12.3065 7.59082 12.3549 7.51844 12.3879 7.43878C12.4209 7.35911 12.4379 7.27373 12.4379 7.1875C12.4379 7.10127 12.4209 7.01589 12.3879 6.93622C12.3549 6.85656 12.3065 6.78418 12.2455 6.7232C12.1846 6.66223 12.1122 6.61386 12.0325 6.58087C11.9529 6.54787 11.8675 6.53089 11.7812 6.53089C11.695 6.53089 11.6096 6.54787 11.53 6.58087C11.4503 6.61386 11.3779 6.66223 11.317 6.7232L9.15625 8.88473V1.28125C9.15625 1.1072 9.08711 0.940282 8.96404 0.817211C8.84097 0.694141 8.67405 0.625 8.5 0.625C8.32595 0.625 8.15903 0.694141 8.03596 0.817211C7.91289 0.940282 7.84375 1.1072 7.84375 1.28125V8.88473L5.68305 6.7232C5.55991 6.60006 5.3929 6.53089 5.21875 6.53089C5.0446 6.53089 4.87759 6.60006 4.75445 6.7232C4.63131 6.84634 4.56214 7.01335 4.56214 7.1875C4.56214 7.36165 4.63131 7.52866 4.75445 7.6518L8.0357 10.933Z"/>
</svg>
