<svg width="49" height="49" viewBox="0 0 49 49" fill="none" xmlns="http://www.w3.org/2000/svg">
<path d="M34.3067 37.3048C34.3067 39.3226 33.3219 40.5952 32.0508 41.7925C30.1821 43.5424 28.3807 45.3676 26.5709 47.1677C24.7611 48.9678 24.7611 48.9929 23.0018 47.2765C20.7291 45.0578 18.4647 42.8391 16.2677 40.5785C15.6093 39.8061 15.2225 38.841 15.1663 37.8299C15.1101 36.8188 15.3875 35.8171 15.9563 34.9772C17.1781 33.5176 18.5061 32.1492 19.9294 30.883C20.3924 30.4309 20.8553 30.2886 21.3604 30.9416C21.784 31.3807 22.2308 31.7972 22.6988 32.1892C22.7961 32.2581 22.8754 32.3491 22.9301 32.4547C22.9849 32.5603 23.0134 32.6774 23.0134 32.7962C23.0134 32.915 22.9849 33.0321 22.9301 33.1376C22.8754 33.2432 22.7961 33.3343 22.6988 33.4032C21.7223 34.3493 20.8301 35.3791 19.8789 36.3587C18.7846 37.489 18.8098 38.0835 20.0136 39.0798C21.498 40.368 22.9035 41.7435 24.2224 43.1991C24.5422 43.5256 24.7695 43.601 25.1146 43.2661C26.7982 41.6502 28.4817 40.051 30.0979 38.41C30.6956 37.8155 30.5019 37.0034 29.6097 36.141C27.4127 33.9976 25.1567 31.8961 23.0102 29.6858C22.1685 28.7899 21.857 28.5806 23.1028 27.7182C23.2909 27.5689 23.4655 27.4036 23.6247 27.2242C24.7527 26.0604 24.8621 26.0521 26.0658 27.2828C27.4463 28.6894 28.8016 30.1211 30.1737 31.5277C31.1838 32.5576 32.236 33.5623 33.2377 34.6005C33.5951 34.9538 33.8764 35.3757 34.0645 35.8407C34.2526 36.3056 34.3436 36.8038 34.332 37.3048" fill="white"/>
<path d="M34.2904 11.7402C34.3163 12.3477 34.2136 12.9538 33.9888 13.5192C33.764 14.0846 33.4222 14.5967 32.9856 15.0222C32.1605 15.9812 31.2443 16.8588 30.2499 17.6429C30.0281 17.809 29.8348 18.0098 29.6775 18.2373C28.962 19.2504 28.9704 19.242 28.0781 18.3378C27.6544 17.8898 27.1987 17.4728 26.7145 17.0903C26.1926 16.6967 26.2852 16.3786 26.7145 15.9851C27.7695 14.958 28.8189 13.9254 29.8627 12.8872C30.6623 12.05 30.7044 11.4974 29.8627 10.7104C28.3727 9.19492 26.866 7.71298 25.3508 6.22266C24.9889 5.87101 24.5932 5.63657 24.1218 6.13056C22.6235 7.67948 21.1167 9.21167 19.6016 10.7438C18.7598 11.5811 18.7598 11.8825 19.5258 12.7198C21.706 15.2316 24.1976 17.3917 26.5377 19.7276C27.2364 20.4225 27.169 20.8412 26.5377 21.4859C24.7532 23.2609 24.77 23.2943 22.9686 21.4859C20.7548 19.2922 18.5241 17.107 16.3524 14.8715C15.5698 14.085 15.1184 13.0312 15.0903 11.9249C15.0621 10.8187 15.4593 9.74353 16.2008 8.91863C18.5662 6.15568 21.2514 3.736 23.8525 1.14887C24.7532 0.236261 24.8289 0.311615 25.6875 1.21585C27.6067 3.19178 29.6186 5.08399 31.5799 7.07666C32.6321 8.13998 33.8526 9.09445 34.1893 10.6936C34.2735 11.1039 34.2903 11.5309 34.324 11.7318" fill="white"/>
<path d="M37.826 15.266C38.4358 15.2313 39.0457 15.3329 39.6108 15.5632C40.176 15.7936 40.6821 16.1469 41.0921 16.5972C43.5164 19.0643 45.9687 21.5008 48.4491 23.9065C49.0636 24.5093 49.0636 24.8777 48.4491 25.4721C45.9996 27.8332 43.5921 30.2529 41.1594 32.6391C38.7267 35.0253 36.5045 34.5983 34.1644 32.6391C33.0027 31.6762 32.0179 30.5292 30.932 29.4826C30.4606 29.0137 30.3848 28.6454 30.932 28.1179C32.8765 26.1085 32.8596 26.0917 34.8462 28.0007L36.8243 29.9431C36.9262 30.0674 37.0545 30.1676 37.2001 30.2364C37.3457 30.3052 37.5049 30.3409 37.6661 30.3409C37.8273 30.3409 37.9865 30.3052 38.1321 30.2364C38.2777 30.1676 38.406 30.0674 38.5079 29.9431C40.1297 28.3523 41.7459 26.7531 43.3564 25.1456C43.4385 25.0831 43.5049 25.0026 43.5507 24.9104C43.5964 24.8182 43.6202 24.7168 43.6202 24.614C43.6202 24.5111 43.5964 24.4097 43.5507 24.3175C43.5049 24.2253 43.4385 24.1448 43.3564 24.0823C41.715 22.4831 40.0904 20.8589 38.4405 19.2764C38.3355 19.1599 38.2058 19.0681 38.0608 19.0076C37.9157 18.9472 37.7589 18.9195 37.6018 18.9267C37.4447 18.934 37.2912 18.9758 37.1523 19.0493C37.0135 19.1229 36.8928 19.2262 36.7991 19.3518C34.5095 21.7463 31.9758 23.8981 29.804 26.4099C28.9623 27.356 28.8949 27.3476 28.0195 26.4601C27.4218 25.8657 26.336 25.3466 26.3865 24.6349C26.437 23.9232 27.4134 23.3874 28.0111 22.7929C29.4673 21.3528 30.9236 19.9044 32.4135 18.5062C33.0785 17.8782 33.6509 17.1749 34.3327 16.5553C34.7892 16.1022 35.3378 15.7512 35.9417 15.526C36.5456 15.3007 37.3069 15.2179 37.9504 15.2608" fill="white"/>
<path d="M11.6027 15.2731C12.2513 15.1881 13.0646 15.2957 13.6719 15.5376C14.2793 15.7796 14.8139 16.1729 15.2242 16.6798C16.3774 17.8435 17.5391 19.0073 18.7176 20.146C19.0711 20.4809 19.1216 20.7237 18.7176 21.0419C18.5075 21.2173 18.3131 21.4106 18.1367 21.6196C16.6131 23.2187 16.3269 23.2941 14.8791 21.6196C14.0548 20.8624 13.2736 20.0602 12.539 19.2166C12.4484 19.1018 12.3328 19.0089 12.2008 18.945C12.0688 18.8811 11.924 18.8479 11.7772 18.8479C11.6304 18.8479 11.4856 18.8811 11.3536 18.945C11.2216 19.0089 11.106 19.1018 11.0154 19.2166C9.33188 20.8912 7.64835 22.5657 5.96483 24.2402C5.66179 24.5332 5.77122 24.7677 6.02375 25.0188C7.70728 26.6934 9.39081 28.3679 11.0743 30.0424C11.1674 30.1577 11.2853 30.2507 11.4193 30.3146C11.5534 30.3785 11.7001 30.4117 11.8488 30.4117C11.9974 30.4117 12.1441 30.3785 12.2782 30.3146C12.4122 30.2507 12.5301 30.1577 12.6232 30.0424C14.5171 28.1586 16.4195 26.2831 18.2714 24.3574C18.9357 23.7763 19.5495 23.1405 20.1065 22.4568C20.3842 22.0466 20.7715 22.2308 21.0661 22.5154C21.6385 23.0597 22.194 23.6206 22.7496 24.19C23.3052 24.7593 22.8254 25.1361 22.4887 25.4793C21.226 26.7855 19.9634 28.0581 18.6502 29.3391C17.5222 30.461 16.369 31.5495 15.2832 32.6881C13.8353 34.1868 10.9397 35.1245 8.7679 33.0314C6.09109 30.4526 3.49845 27.7902 0.872151 25.1696C0.442851 24.7425 0.476526 24.3993 0.922661 23.9723C3.49846 21.4605 6.02375 18.8734 8.64164 16.3867C9.03231 15.9597 9.52448 15.6371 10.073 15.4484C10.6216 15.2597 11.6284 15.1506 12.2008 15.2463" fill="white"/>
</svg>
