<svg width="213" height="48" viewBox="0 0 213 48" fill="none" xmlns="http://www.w3.org/2000/svg">
<g clip-path="url(#clip0_101_10713)">
<path d="M33.7628 36.7638C33.7628 38.7816 32.7779 40.0542 31.5068 41.2515C29.6381 43.0014 27.8368 44.8266 26.027 46.6267C24.2172 48.4268 24.2172 48.4519 22.4579 46.7355C20.1851 44.5168 17.9208 42.2981 15.7238 40.0375C15.0653 39.2651 14.6786 38.3 14.6224 37.2889C14.5661 36.2778 14.8435 35.2761 15.4123 34.4362C16.6342 32.9766 17.9621 31.6082 19.3854 30.342C19.8484 29.8899 20.3114 29.7476 20.8164 30.4006C21.2401 30.8397 21.6868 31.2561 22.1548 31.6481C22.2521 31.7171 22.3315 31.8081 22.3862 31.9137C22.4409 32.0193 22.4695 32.1364 22.4695 32.2552C22.4695 32.374 22.4409 32.491 22.3862 32.5966C22.3315 32.7022 22.2521 32.7933 22.1548 32.8622C21.1784 33.8083 20.2861 34.8381 19.3349 35.8177C18.2406 36.948 18.2659 37.5424 19.4696 38.5388C20.9541 39.8269 22.3596 41.2025 23.6784 42.6581C23.9983 42.9846 24.2256 43.06 24.5707 42.7251C26.2542 41.1092 27.9378 39.51 29.554 37.869C30.1516 37.2745 29.958 36.4624 29.0657 35.6C26.8687 33.4566 24.6128 31.3551 22.4663 29.1447C21.6245 28.2489 21.3131 28.0396 22.5589 27.1772C22.7469 27.0279 22.9215 26.8626 23.0808 26.6832C24.2088 25.5194 24.3182 25.511 25.5219 26.7418C26.9024 28.1484 28.2576 29.5801 29.6297 30.9867C30.6398 32.0165 31.692 33.0212 32.6937 34.0594C33.0511 34.4128 33.3324 34.8347 33.5206 35.2997C33.7087 35.7646 33.7997 36.2628 33.788 36.7638" fill="white"/>
<path d="M33.7464 11.2031C33.7724 11.8105 33.6696 12.4167 33.4449 12.9821C33.2201 13.5475 32.8783 14.0596 32.4417 14.4851C31.6165 15.4441 30.7004 16.3217 29.7059 17.1057C29.4842 17.2719 29.2909 17.4727 29.1335 17.7002C28.418 18.7133 28.4265 18.7049 27.5342 17.8007C27.1105 17.3526 26.6548 16.9357 26.1705 16.5532C25.6486 16.1596 25.7412 15.8415 26.1705 15.448C27.2255 14.4209 28.2749 13.3883 29.3187 12.3501C30.1184 11.5129 30.1605 10.9603 29.3187 10.1733C27.8288 8.65781 26.322 7.17587 24.8069 5.68555C24.4449 5.3339 24.0493 5.09947 23.5779 5.59345C22.0796 7.14237 20.5728 8.67456 19.0576 10.2067C18.2159 11.044 18.2159 11.3454 18.9819 12.1827C21.162 14.6944 23.6537 16.8546 25.9938 19.1905C26.6924 19.8854 26.6251 20.3041 25.9938 20.9488C24.2092 22.7237 24.2261 22.7572 22.4247 20.9488C20.2108 18.7551 17.9802 16.5699 15.8084 14.3344C15.0259 13.5479 14.5745 12.494 14.5463 11.3878C14.5182 10.2816 14.9154 9.20643 15.6569 8.38152C18.0222 5.61857 20.7075 3.19889 23.3085 0.611762C24.2092 -0.300849 24.285 -0.225494 25.1436 0.678745C27.0628 2.65467 29.0746 4.54688 31.0359 6.53955C32.0881 7.60287 33.3087 8.55734 33.6454 10.1565C33.7296 10.5668 33.7464 10.9938 33.7801 11.1947" fill="white"/>
<path d="M37.2821 14.728C37.8919 14.6933 38.5017 14.7949 39.0669 15.0252C39.632 15.2556 40.1382 15.6089 40.5481 16.0592C42.9724 18.5263 45.4248 20.9628 47.9052 23.3685C48.5196 23.9713 48.5196 24.3397 47.9052 24.9342C45.4556 27.2952 43.0482 29.7149 40.6155 32.1011C38.1828 34.4873 35.9605 34.0603 33.6204 32.1011C32.4588 31.1382 31.4739 29.9912 30.388 28.9446C29.9167 28.4758 29.8409 28.1074 30.388 27.5799C32.3325 25.5705 32.3157 25.5537 34.3023 27.4627L36.2804 29.4051C36.3822 29.5294 36.5106 29.6296 36.6562 29.6984C36.8018 29.7672 36.961 29.8029 37.1222 29.8029C37.2833 29.8029 37.4425 29.7672 37.5881 29.6984C37.7337 29.6296 37.8621 29.5294 37.9639 29.4051C39.5857 27.8143 41.2019 26.2152 42.8125 24.6076C42.8945 24.5451 42.961 24.4646 43.0067 24.3724C43.0525 24.2802 43.0763 24.1788 43.0763 24.076C43.0763 23.9732 43.0525 23.8717 43.0067 23.7795C42.961 23.6873 42.8945 23.6068 42.8125 23.5443C41.1711 21.9452 39.5464 20.3209 37.8966 18.7384C37.7916 18.622 37.6619 18.5301 37.5168 18.4697C37.3718 18.4092 37.215 18.3815 37.0579 18.3888C36.9008 18.396 36.7472 18.4378 36.6084 18.5114C36.4695 18.5849 36.3489 18.6882 36.2551 18.8138C33.9655 21.2084 31.4318 23.3601 29.2601 25.8719C28.4183 26.818 28.351 26.8096 27.4755 25.9221C26.8779 25.3277 25.792 24.8086 25.8425 24.0969C25.893 23.3852 26.8695 22.8494 27.4671 22.2549C28.9234 20.8149 30.3796 19.3664 31.8696 17.9682C32.5346 17.3402 33.1069 16.6369 33.7888 16.0174C34.2453 15.5642 34.7939 15.2132 35.3978 14.988C36.0017 14.7627 36.647 14.6684 37.2905 14.7112" fill="white"/>
<path d="M11.2122 14.76C11.8609 14.675 12.5206 14.7575 13.128 14.9994C13.7354 15.2413 14.2699 15.6347 14.6803 16.1415C15.8335 17.3053 16.9951 18.4691 18.1736 19.6078C18.5272 19.9427 18.5777 20.1855 18.1736 20.5036C17.9635 20.6791 17.7692 20.8724 17.5928 21.0813C16.0692 22.6805 15.783 22.7559 14.3352 21.0813C13.5109 20.3242 12.7296 19.522 11.9951 18.6784C11.9045 18.5635 11.7889 18.4706 11.6569 18.4067C11.5249 18.3429 11.38 18.3097 11.2333 18.3097C11.0865 18.3097 10.9416 18.3429 10.8096 18.4067C10.6777 18.4706 10.562 18.5635 10.4715 18.6784C8.78794 20.3529 7.10441 22.0274 5.42088 23.702C5.11785 23.995 5.22727 24.2294 5.4798 24.4806C7.16333 26.1551 8.84686 27.8296 10.5304 29.5042C10.6235 29.6194 10.7414 29.7124 10.8754 29.7764C11.0094 29.8403 11.1562 29.8735 11.3048 29.8735C11.4534 29.8735 11.6002 29.8403 11.7342 29.7764C11.8683 29.7124 11.9862 29.6194 12.0792 29.5042C13.9732 27.6203 15.8756 25.7449 17.7275 23.8192C18.3917 23.238 19.0056 22.6023 19.5625 21.9186C19.8403 21.5083 20.2275 21.6925 20.5221 21.9772C21.0945 22.5214 21.6501 23.0824 22.2057 23.6517C22.7612 24.2211 22.2814 24.5978 21.9447 24.9411C20.6821 26.2472 19.4194 27.5199 18.1063 28.8009C16.9783 29.9228 15.8251 31.0112 14.7392 32.1499C13.2914 33.6486 10.3957 34.5863 8.22396 32.4932C5.54715 29.9144 2.95451 27.2519 0.328205 24.6313C-0.101094 24.2043 -0.0674195 23.861 0.378715 23.434C2.95451 20.9223 5.4798 18.3351 8.09769 15.8485C8.48836 15.4215 8.98053 15.0989 9.52909 14.9102C10.0777 14.7215 10.6651 14.6727 11.2375 14.7684" fill="white"/>
<path d="M71.8196 15.8582H71.727C71.7186 15.3661 71.516 14.897 71.163 14.5521C70.9921 14.376 70.7865 14.2369 70.5592 14.1432C70.3318 14.0496 70.0875 14.0035 69.8414 14.0079H69.4795V13.7148H71.8448L71.8196 15.8582ZM71.8196 32.1764V34.3198H69.4795V34.0267H69.8583C70.1043 34.0311 70.3486 33.985 70.576 33.8914C70.8034 33.7977 71.0089 33.6586 71.1799 33.4825C71.536 33.139 71.7416 32.6697 71.7523 32.1764H71.8196ZM73.6546 13.7567V34.3198H71.727V13.7148L73.6546 13.7567ZM73.5621 15.9001V13.7148H75.9358V14.0079H75.5486C75.3037 14.0027 75.0604 14.0484 74.8343 14.1421C74.6081 14.2358 74.4042 14.3755 74.2355 14.5521C74.0565 14.7207 73.913 14.923 73.8132 15.1472C73.7135 15.3714 73.6596 15.6131 73.6546 15.8582L73.5621 15.9001ZM73.5621 32.2182H73.6883C73.6933 32.4634 73.7472 32.7051 73.8469 32.9293C73.9466 33.1535 74.0901 33.3558 74.2691 33.5244C74.4379 33.701 74.6418 33.8407 74.8679 33.9344C75.0941 34.0281 75.3374 34.0738 75.5823 34.0686H75.9695V34.3616H73.5957L73.5621 32.2182Z" fill="white"/>
<path d="M81.4661 32.2354V34.3201H79.0166V34.0271H79.5806C79.8186 34.0299 80.0548 33.9845 80.2747 33.8939C80.4946 33.8032 80.6938 33.6691 80.8601 33.4996C81.0302 33.3358 81.165 33.1392 81.2561 32.9218C81.3473 32.7045 81.393 32.4709 81.3904 32.2354H81.4661ZM81.4072 13.2715L82.7119 14.946V34.3453H81.3483V16.947C81.3307 15.7177 81.2407 14.4904 81.0789 13.2715H81.4072ZM81.4072 13.2715L98.6129 31.5237L98.8738 34.7388L81.6766 16.5117L81.4072 13.2715ZM82.7456 32.2354C82.7478 32.7099 82.9383 33.1643 83.2757 33.4999C83.613 33.8354 84.0699 34.0249 84.547 34.0271H85.111V34.3201H82.653V32.2354H82.7456ZM95.1448 13.7152H97.6028V15.8H97.5438C97.5378 15.3181 97.3412 14.8579 96.9967 14.519C96.8286 14.3507 96.6275 14.2186 96.406 14.1307C96.1845 14.0429 95.9472 14.0012 95.7088 14.0083H95.1448V13.7152ZM98.8738 13.7152V30.9627C98.8738 31.5907 98.8738 32.2019 98.9327 32.7796C98.9917 33.3573 99.0422 34.0104 99.1432 34.7388H98.8738L97.5438 33.1731V13.7152H98.8738ZM101.248 13.7152V14.0083H100.709C100.473 14.0045 100.24 14.0477 100.021 14.1354C99.8029 14.2232 99.6045 14.3536 99.4378 14.519C99.0886 14.8562 98.8861 15.3161 98.8738 15.8H98.7896V13.7152H101.248Z" fill="white"/>
<path d="M107.577 15.8331H105.119C104.887 15.2467 104.475 14.7484 103.941 14.4098C103.513 14.145 103.022 13.9976 102.518 13.9828H102.308V13.7148H108.966V14.0079H108.697C108.507 14.0111 108.32 14.0546 108.149 14.1355C107.978 14.2163 107.826 14.3327 107.703 14.4768C107.554 14.6673 107.463 14.8962 107.441 15.1366C107.418 15.3769 107.466 15.6186 107.577 15.8331ZM113.469 34.7384L104.286 13.8907H106.811L114.033 31.9671L113.469 34.7384ZM113.469 34.7384L113.2 32.6704L121.071 13.7986H122.847L114.825 31.6991L114.278 32.9718C114.134 33.3234 114 33.6667 113.899 34.0016C113.809 34.2383 113.752 34.4862 113.73 34.7384H113.469ZM120.246 15.8331C120.36 15.62 120.41 15.3783 120.389 15.1375C120.368 14.8967 120.277 14.6672 120.128 14.4768C120.002 14.3322 119.847 14.2158 119.673 14.135C119.499 14.0542 119.31 14.0109 119.118 14.0079H118.857V13.7148H124.808V14.0079H124.539C124.046 14.0243 123.566 14.1717 123.15 14.4349C122.607 14.7749 122.181 15.2714 121.929 15.8582L120.246 15.8331Z" fill="white"/>
<path d="M128.63 15.8582H128.537C128.532 15.6131 128.478 15.3714 128.378 15.1472C128.279 14.923 128.135 14.7207 127.956 14.5521C127.788 14.3755 127.584 14.2358 127.357 14.1421C127.131 14.0484 126.888 14.0027 126.643 14.0079H126.256V13.7148H128.63V15.8582ZM128.63 32.1764V34.3198H126.256V34.0267H126.643C126.888 34.0319 127.131 33.9862 127.357 33.8925C127.584 33.7988 127.788 33.6592 127.956 33.4825C128.135 33.3139 128.279 33.1116 128.378 32.8874C128.478 32.6632 128.532 32.4215 128.537 32.1764H128.63ZM130.465 13.7567V34.3198H128.537V13.7148L130.465 13.7567ZM130.372 15.9001V13.7148H132.737V14.0079H132.359C132.113 14.0035 131.868 14.0496 131.641 14.1432C131.414 14.2369 131.208 14.376 131.037 14.5521C130.681 14.8956 130.475 15.3649 130.465 15.8582L130.372 15.9001ZM130.372 32.2182H130.465C130.475 32.7116 130.681 33.1808 131.037 33.5244C131.208 33.7004 131.414 33.8396 131.641 33.9332C131.868 34.0269 132.113 34.0729 132.359 34.0686H132.737V34.3616H130.372V32.2182Z" fill="white"/>
<path d="M154.885 26.1054V30.9615C154.351 31.6257 153.735 32.2193 153.05 32.7281C152.192 33.362 151.237 33.8539 150.221 34.1849C148.955 34.5934 147.63 34.7886 146.299 34.7626C144.368 34.7808 142.464 34.3081 140.768 33.3895C139.188 32.5202 137.889 31.2223 137.023 29.647C136.137 27.9067 135.676 25.9836 135.676 24.0331C135.676 22.0827 136.137 20.1596 137.023 18.4193C137.889 16.8392 139.188 15.5358 140.768 14.66C142.464 13.7449 144.37 13.2833 146.299 13.3204C147.282 13.3122 148.263 13.4019 149.228 13.5884C150.037 13.7457 150.827 13.9871 151.585 14.3084C152.247 14.5967 152.886 14.9354 153.496 15.3215L154.085 19.5078H153.816C153.561 18.4492 153.06 17.4653 152.351 16.636C151.661 15.8552 150.796 15.2471 149.826 14.861C148.713 14.4293 147.526 14.2188 146.332 14.2414C144.782 14.2096 143.257 14.6413 141.955 15.4806C140.664 16.3303 139.638 17.5222 138.992 18.9217C138.287 20.5492 137.923 22.3028 137.923 24.075C137.923 25.8472 138.287 27.6008 138.992 29.2283C139.638 30.6254 140.665 31.8146 141.955 32.6611C143.263 33.4883 144.783 33.9215 146.332 33.9086C147.184 33.9151 148.033 33.811 148.858 33.5988C149.644 33.4121 150.404 33.1309 151.122 32.7616C151.814 32.3924 152.451 31.9304 153.016 31.3885V26.1807C153.016 25.2932 152.511 24.8495 151.509 24.8495H151.029V24.4308H156.838V24.7239H156.392C155.339 24.749 154.843 25.1927 154.885 26.1054Z" fill="white"/>
<path d="M160.953 15.8582H160.861C160.85 15.3649 160.644 14.8956 160.288 14.5521C160.117 14.376 159.912 14.2369 159.684 14.1432C159.457 14.0496 159.213 14.0035 158.967 14.0079H158.588V13.7148H160.953V15.8582ZM160.953 32.1764V34.3198H158.588V34.0267H158.967C159.213 34.0311 159.457 33.985 159.684 33.8914C159.912 33.7977 160.117 33.6586 160.288 33.4825C160.644 33.139 160.85 32.6697 160.861 32.1764H160.953ZM162.788 13.7567V34.3198H160.861V13.7148L162.788 13.7567ZM162.696 15.9001V13.7148H165.069V14.0079H164.682C164.437 14.0027 164.194 14.0484 163.968 14.1421C163.742 14.2358 163.538 14.3755 163.369 14.5521C163.19 14.7207 163.047 14.923 162.947 15.1472C162.847 15.3714 162.793 15.6131 162.788 15.8582L162.696 15.9001ZM170.785 33.4825V34.3951H162.696V33.4072L170.785 33.4825ZM172.586 29.6311L170.903 34.3951H165.987L167.056 33.4825C167.924 33.5121 168.787 33.3461 169.581 32.9969C170.23 32.6895 170.787 32.2191 171.198 31.6322C171.629 31.0034 171.996 30.333 172.292 29.6311H172.586Z" fill="white"/>
<path d="M185.584 13.2953C187.524 13.2562 189.441 13.7177 191.148 14.6349C192.73 15.5119 194.031 16.8149 194.902 18.3942C195.788 20.1374 196.249 22.0632 196.249 24.0163C196.249 25.9695 195.788 27.8953 194.902 29.6385C194.034 31.2167 192.735 32.5196 191.157 33.3978C189.44 34.2783 187.537 34.7376 185.605 34.7376C183.674 34.7376 181.77 34.2783 180.054 33.3978C178.475 32.5196 177.177 31.2167 176.308 29.6385C175.422 27.8953 174.961 25.9695 174.961 24.0163C174.961 22.0632 175.422 20.1374 176.308 18.3942C177.177 16.816 178.475 15.5132 180.054 14.6349C181.75 13.7208 183.655 13.2593 185.584 13.2953ZM185.584 33.8499C187.141 33.8851 188.672 33.4533 189.978 32.6108C191.259 31.759 192.274 30.5668 192.907 29.1697C193.602 27.5394 193.96 25.7869 193.96 24.0163C193.96 22.2458 193.602 20.4933 192.907 18.863C192.274 17.4659 191.259 16.2737 189.978 15.4219C188.662 14.6116 187.145 14.1824 185.597 14.1824C184.049 14.1824 182.532 14.6116 181.215 15.4219C179.934 16.2737 178.919 17.4659 178.286 18.863C177.592 20.4933 177.234 22.2458 177.234 24.0163C177.234 25.7869 177.592 27.5394 178.286 29.1697C178.919 30.5668 179.934 31.759 181.215 32.6108C182.513 33.4509 184.036 33.8827 185.584 33.8499Z" fill="white"/>
<path d="M201.24 15.8585H201.156C201.16 15.6135 201.112 15.3704 201.015 15.1453C200.918 14.9201 200.774 14.7181 200.592 14.5524C200.419 14.3769 200.212 14.2382 199.983 14.1446C199.755 14.0511 199.509 14.0046 199.262 14.0082H198.909V13.7151H201.274L201.24 15.8585ZM201.24 32.1767V34.32H198.875V34.027H199.229C199.476 34.0305 199.721 33.9841 199.95 33.8906C200.178 33.797 200.385 33.6583 200.559 33.4828C200.74 33.3171 200.884 33.115 200.981 32.8899C201.079 32.6647 201.127 32.4217 201.123 32.1767H201.24ZM203.075 13.757V34.32H201.156V13.7151L203.075 13.757ZM204.759 13.757C205.958 13.7227 207.153 13.9307 208.269 14.3682C209.144 14.7129 209.9 15.2998 210.449 16.0595C210.953 16.8247 211.211 17.7239 211.19 18.6382C211.206 19.3851 211.044 20.1252 210.719 20.7983C210.445 21.3574 210.055 21.8523 209.574 22.2506C209.094 22.6489 208.535 22.9415 207.932 23.1092C208.905 23.2383 209.834 23.594 210.643 24.1474C211.378 24.6462 211.977 25.3195 212.385 26.1065C212.798 26.9335 213.009 27.8458 213 28.769C213.02 29.7938 212.742 30.8026 212.2 31.6743C211.624 32.5385 210.804 33.2142 209.843 33.6167C208.657 34.1049 207.381 34.3388 206.097 34.3033H202.814C202.814 33.9517 202.814 33.6 202.814 33.2484H205.954C206.855 33.2738 207.749 33.0873 208.564 32.7041C209.263 32.3596 209.838 31.8103 210.214 31.1301C210.603 30.3504 210.796 29.4886 210.778 28.6183C210.819 27.6834 210.598 26.7555 210.138 25.9391C209.734 25.2716 209.151 24.7293 208.454 24.3734C207.774 24.0182 207.041 23.775 206.283 23.6534C205.542 23.5301 204.794 23.4657 204.043 23.4608V23.2013C204.549 23.1962 205.054 23.1457 205.55 23.0506C206.113 22.9482 206.654 22.7499 207.15 22.4645C207.708 22.1322 208.165 21.6545 208.471 21.083C208.83 20.3787 209.001 19.5945 208.968 18.8057C208.992 18.0212 208.824 17.2427 208.48 16.5367C208.165 15.9168 207.657 15.4146 207.032 15.105C206.287 14.7582 205.471 14.5918 204.649 14.6194H201.922C201.903 14.5341 201.877 14.4502 201.846 14.3682C201.804 14.2259 201.729 13.9914 201.628 13.6816L204.759 13.757Z" fill="white"/>
</g>
<defs>
<clipPath id="clip0_101_10713">
<rect width="213" height="48" fill="white"/>
</clipPath>
</defs>
</svg>
