<svg viewBox="0 0 32 32" xmlns="http://www.w3.org/2000/svg"><g data-name="2"><path d="M27.38 20.8A3 3 0 0 0 28 19a3 3 0 0 0-2-2.82V14h-2v2h-1v-2h-2v2h-2v2h1v8h-1v2h2v2h2v-2h1v2h2v-2.14a4 4 0 0 0 1.38-7.06ZM25 18a1 1 0 0 1 0 2h-3v-2Zm0 8h-3v-4h3a2 2 0 0 1 0 4ZM4 12h7a1 1 0 0 0 1-1V4a1 1 0 0 0-1-1H4a1 1 0 0 0-1 1v7a1 1 0 0 0 1 1Zm1-7h5v5H5Zm4 2v1a1 1 0 0 1-1 1H7a1 1 0 0 1-1-1V7a1 1 0 0 1 1-1h1a1 1 0 0 1 1 1Zm-6 9v-1a1 1 0 0 1 1-1h1a1 1 0 0 1 1 1v1h1a1 1 0 0 1 1 1v1a1 1 0 0 1-1 1H6a1 1 0 0 1-1-1v-1H4a1 1 0 0 1-1-1ZM14 5V4a1 1 0 0 1 1-1h1a1 1 0 0 1 1 1v1a1 1 0 0 1-1 1h-1a1 1 0 0 1-1-1Zm0 6v-1a1 1 0 0 1 1-1h1a1 1 0 0 1 1 1v1h1a1 1 0 0 1 1 1v1a1 1 0 0 1-1 1h-1a1 1 0 0 1-1-1v-1h-1a1 1 0 0 1-1-1Zm5 9a1 1 0 0 1-1 1h-1v1a1 1 0 0 1-1 1h-1a1 1 0 0 1-1-1v-1a1 1 0 0 1 1-1h1v-1a1 1 0 0 1 1-1h1a1 1 0 0 1 1 1Zm-5-3a1 1 0 0 1-1 1h-3a1 1 0 0 1-1-1v-3a1 1 0 0 1 1-1h1a1 1 0 0 1 1 1v1h1a1 1 0 0 1 1 1Zm0-1v-1a1 1 0 0 1 1-1h1a1 1 0 0 1 1 1v1a1 1 0 0 1-1 1h-1a1 1 0 0 1-1-1Zm3 11v1a1 1 0 0 1-1 1h-1a1 1 0 0 1-1-1v-1a1 1 0 0 1 1-1h1a1 1 0 0 1 1 1Zm-6-7H4a1 1 0 0 0-1 1v7a1 1 0 0 0 1 1h7a1 1 0 0 0 1-1v-7a1 1 0 0 0-1-1Zm-1 7H5v-5h5Zm-4-2v-1a1 1 0 0 1 1-1h1a1 1 0 0 1 1 1v1a1 1 0 0 1-1 1H7a1 1 0 0 1-1-1ZM28 3h-7a1 1 0 0 0-1 1v7a1 1 0 0 0 1 1h7a1 1 0 0 0 1-1V4a1 1 0 0 0-1-1Zm-1 7h-5V5h5Zm-4-2V7a1 1 0 0 1 1-1h1a1 1 0 0 1 1 1v1a1 1 0 0 1-1 1h-1a1 1 0 0 1-1-1Z" data-name="bitcoin address qr code" fill="#d0d5dd" class="fill-000000"></path></g></svg>